<svg id="レイヤー_1" data-name="レイヤー 1" xmlns="http://www.w3.org/2000/svg" viewBox="0 0 595.276 94.786"><defs><style>.cls-1{fill:#efba40;}</style></defs><path class="cls-1" d="M0,31.488c1.984.2,3.968.4,5.951.609,1.961.207,3.921.425,5.882.637q3.693.4,7.387.794c2.325.246,4.651.482,6.977.727q3.42.361,6.84.734,3.011.321,6.021.643,3.593.387,7.184.777,2.84.3,5.68.6l6.979.743c2.008.213,4.017.421,6.024.637,2.4.258,4.79.526,7.186.782,2.349.251,4.7.489,7.05.736q3.492.368,6.984.743,3.558.383,7.117.77,4.245.459,8.489.916c2.328.249,4.656.491,6.984.739q3.628.389,7.257.78c2.351.25,4.7.489,7.056.741s4.7.516,7.049.769,4.7.495,7.055.746c2.4.256,4.792.52,7.188.774,2.375.252,4.751.492,7.126.745,2.35.25,4.7.514,7.048.766,2.375.254,4.75.5,7.125.751q4.245.452,8.49.909,3.459.37,6.917.744,4.314.462,8.628.921c2.4.252,4.8.486,7.193.742,2.35.25,4.7.527,7.047.778,2.4.255,4.8.486,7.194.74,2.35.248,4.7.517,7.047.768,1.962.21,3.926.4,5.889.609,2.327.246,4.653.5,6.979.749,2.007.213,4.015.417,6.021.633,1.11.12,2.218.256,3.327.385-1.607.386-3.251.561-4.88.82Q221.667,60.14,207.838,62.3q-15.156,2.383-30.312,4.767t-30.315,4.775q-20.51,3.224-41.019,6.439-17.478,2.748-34.956,5.5Q48.544,87.36,25.849,90.924,14.025,92.783,2.2,94.644a13.091,13.091,0,0,1-2.2.14Z"/><polygon points="595.276 94.786 595.276 0 0 94.785 595.276 94.786"/></svg>